<svg width="494" height="219" viewBox="0 0 494 219" fill="none" xmlns="http://www.w3.org/2000/svg">
<g style="mix-blend-mode:darken" filter="url(#filter0_f_7_6)">
<path d="M423 95.8027C423 122.758 362.875 147.955 227.554 147.955C92.2335 147.955 71.9951 134.959 71.9951 108.004C71.9951 81.0493 52.3466 71.3995 187.667 71.3995C322.988 71.3995 423 68.8477 423 95.8027Z" fill="#7A7A7A" fill-opacity="0.51"/>
</g>
<g clip-path="url(#clip0_7_6)">
<path d="M241.953 10.9549C241.654 10.9823 240.704 11.0781 239.849 11.1465C220.128 12.939 201.655 23.667 189.955 40.1557C183.44 49.3237 179.273 59.7233 177.699 70.7386C177.143 74.5837 177.075 75.7194 177.075 80.9329C177.075 86.1463 177.143 87.2821 177.699 91.1272C181.472 117.413 200.026 139.499 225.191 147.681C229.697 149.146 234.447 150.145 239.849 150.747C241.953 150.979 251.047 150.979 253.151 150.747C262.475 149.707 270.375 147.38 278.166 143.371C279.36 142.755 279.591 142.591 279.428 142.454C279.319 142.372 274.229 135.489 268.122 127.17L257.019 112.049L243.107 91.2914C235.452 79.8792 229.154 70.547 229.1 70.547C229.045 70.5333 228.991 79.7561 228.964 91.0177C228.923 110.736 228.91 111.529 228.665 111.995C228.312 112.665 228.041 112.939 227.471 113.24C227.036 113.459 226.656 113.5 224.607 113.5H222.259L221.634 113.103C221.227 112.843 220.929 112.501 220.725 112.104L220.44 111.488L220.467 84.0527L220.508 56.6034L220.929 56.0698C221.146 55.7824 221.607 55.4129 221.933 55.2351C222.49 54.9614 222.707 54.934 225.055 54.934C227.824 54.934 228.285 55.0435 229.005 55.8371C229.208 56.0561 236.741 67.4956 245.753 81.275C254.766 95.0543 267.09 113.869 273.144 123.106L284.138 139.896L284.694 139.526C289.621 136.297 294.833 131.699 298.959 126.91C307.741 116.743 313.401 104.346 315.301 91.1272C315.857 87.2821 315.925 86.1463 315.925 80.9329C315.925 75.7194 315.857 74.5837 315.301 70.7386C311.528 44.4524 292.974 22.367 267.809 14.1842C263.371 12.7338 258.648 11.7349 253.354 11.1328C252.051 10.996 243.08 10.8454 241.953 10.9549ZM270.375 53.292C271.026 53.6204 271.556 54.2498 271.746 54.9066C271.854 55.2624 271.881 62.8705 271.854 80.0161L271.813 104.619L267.511 97.9689L263.195 91.3187V73.4342C263.195 61.8716 263.249 55.3719 263.33 55.0572C263.548 54.2909 264.023 53.6888 264.674 53.333C265.231 53.0457 265.434 53.0183 267.565 53.0183C269.574 53.0183 269.927 53.0457 270.375 53.292Z" fill="black"/>
<path d="M283.459 140.197C282.984 140.498 282.835 140.703 283.255 140.47C283.554 140.292 284.043 139.923 283.961 139.909C283.92 139.909 283.69 140.046 283.459 140.197ZM282.522 140.812C282.278 141.004 282.278 141.018 282.577 140.867C282.74 140.785 282.875 140.689 282.875 140.662C282.875 140.552 282.807 140.58 282.522 140.812ZM281.844 141.223C281.6 141.414 281.599 141.428 281.898 141.278C282.061 141.195 282.197 141.1 282.197 141.072C282.197 140.963 282.129 140.99 281.844 141.223ZM281.165 141.633C280.921 141.825 280.921 141.839 281.219 141.688C281.382 141.606 281.518 141.51 281.518 141.483C281.518 141.373 281.45 141.401 281.165 141.633ZM280.134 142.181C279.618 142.454 279.645 142.564 280.161 142.304C280.392 142.181 280.568 142.058 280.568 142.03C280.568 141.934 280.554 141.948 280.134 142.181Z" fill="black"/>
</g>
<defs>
<filter id="filter0_f_7_6" x="0" y="0.334869" width="494" height="218.62" filterUnits="userSpaceOnUse" color-interpolation-filters="sRGB">
<feFlood flood-opacity="0" result="BackgroundImageFix"/>
<feBlend mode="normal" in="SourceGraphic" in2="BackgroundImageFix" result="shape"/>
<feGaussianBlur stdDeviation="35.5" result="effect1_foregroundBlur_7_6"/>
</filter>
<clipPath id="clip0_7_6">
<path d="M177 15.8455C177 13.084 179.239 10.8455 182 10.8455H311C313.761 10.8455 316 13.084 316 15.8455V145.979C316 148.741 313.761 150.979 311 150.979H182C179.239 150.979 177 148.741 177 145.979V15.8455Z" fill="white"/>
</clipPath>
</defs>
</svg>
